<svg width="532" height="673" viewBox="0 0 532 673" fill="none" xmlns="http://www.w3.org/2000/svg">
<path d="M72.9211 609.091C71.2282 599.715 65.1076 588.385 47.9178 588.385C27.8631 588.385 19.9194 605.184 19.9194 623.546C19.9194 642.038 27.8631 658.837 47.9178 658.837C65.2378 658.837 71.8793 647.508 72.9211 636.178H88.418C86.3344 657.144 72.0096 672.12 48.3085 672.12C21.4821 672.12 4.55273 651.675 4.55273 623.546C4.55273 595.548 21.4821 575.102 48.3085 575.102C71.8793 575.102 86.2041 590.078 88.418 609.091H72.9211ZM98.5857 577.056H114.082V615.603H158.099V577.056H173.595V670.167H158.099V628.886H114.082V670.167H98.5857V577.056ZM231.041 672.12C202.912 672.12 185.332 651.545 185.332 623.546C185.332 595.548 202.912 575.102 231.041 575.102C259.04 575.102 276.75 595.548 276.75 623.546C276.75 651.545 259.04 672.12 231.041 672.12ZM231.041 658.837C252.398 658.837 261.253 642.429 261.253 623.546C261.253 604.794 252.398 588.385 231.041 588.385C209.684 588.385 200.699 604.794 200.699 623.546C200.699 642.429 209.684 658.837 231.041 658.837ZM282.508 577.056H351.006V590.209L298.786 656.754V657.014H352.309V670.167H279.903V657.014L332.124 590.469V590.209H282.508V577.056ZM363.269 577.056H378.766V615.603H422.782V577.056H438.279V670.167H422.782V628.886H378.766V670.167H363.269V577.056ZM506.688 648.159H468.662L461.109 670.167H445.352L479.601 577.056H495.879L529.998 670.167H514.241L506.688 648.159ZM472.959 635.267H502.521L487.935 591.25H487.675L472.959 635.267Z" fill="#DFDFDF"/>
<mask id="mask0_242_429" style="mask-type:luminance" maskUnits="userSpaceOnUse" x="14" y="0" width="504" height="488">
<path d="M517.918 0H14V487.167H517.918V0Z" fill="white"/>
</mask>
<g mask="url(#mask0_242_429)">
<path d="M517.918 392.164V417.572C469.475 417.605 421.021 417.704 372.579 417.561C368.082 417.55 366.122 418.897 364.782 423.117C361.316 433.954 357.262 444.604 353.563 455.374C349.941 465.946 346.475 476.562 342.931 487.167H210.029C210.716 485.51 211.912 483.732 212.798 482.196C221.404 467.205 229.422 452.303 238.049 437.335C241.66 431.06 245.193 424.752 249.202 417.682C240.42 417.682 232.866 417.859 225.335 417.605C221.913 417.483 220.041 418.721 218.38 421.626C210.738 435.048 202.786 448.293 195.122 461.704C190.327 470.1 185.852 478.683 181.234 487.178H104.816C122.37 464.377 139.924 441.577 158.298 417.715C149.858 417.715 142.925 417.605 135.992 417.815C134.796 417.848 133.312 418.953 132.515 419.98C115.116 442.339 97.7943 464.764 80.4617 487.178H15.1075C35.8512 464.422 56.606 441.665 78.4571 417.693C69.4309 417.693 62.1324 417.428 54.8561 417.837C52.4528 417.97 49.5622 419.284 47.9009 421.018C36.4603 432.982 25.2745 445.2 14 457.341C14 435.611 14 413.893 14 392.164H19.5376C119.845 392.164 220.141 392.286 320.437 392.275L517.906 392.164H517.918Z" fill="#DFDFDF"/>
<path d="M14 366.754C14 342.451 14 318.148 14 293.845C16.2039 293.955 18.4079 294.176 20.6118 294.176C184.18 294.187 347.748 294.187 511.317 294.176C513.521 294.176 515.714 293.966 517.918 293.845V319.253C515.536 319.418 513.166 319.728 510.785 319.728C475.899 319.761 441.023 319.794 406.136 319.672C402.471 319.661 400.555 320.556 399.336 324.268C395.25 336.673 390.509 348.869 386.522 361.297C385.216 365.362 385.149 366.754 379.224 366.754C347.915 366.754 316.351 366.776 284.786 366.754C283.258 366.754 281.464 366.754 279.249 366.754C288.209 351.123 296.759 335.635 305.862 319.739C297.368 319.739 290.036 319.926 282.726 319.661C279.094 319.529 277.056 320.788 275.273 323.925C267.919 336.894 260.421 349.786 252.646 362.512C251.473 364.434 248.715 366.699 246.577 366.754C231.759 367.03 217.04 366.798 202.277 366.754C201.291 366.754 200.062 366.754 198.401 366.754C210.218 351.388 221.647 335.701 233.918 319.739C226.587 319.739 220.54 319.418 214.559 319.893C212.178 320.081 209.221 321.44 207.748 323.251C199.154 333.834 190.36 344.329 182.763 355.597C177.026 364.092 170.713 366.842 160.07 366.842C151.885 366.644 143.955 366.754 135.826 366.754C132.792 366.754 129.846 366.754 125.305 366.754C139.858 350.714 153.114 335.757 167.645 319.728C159.317 319.728 152.694 319.374 146.148 319.893C143.391 320.114 140.09 321.495 138.196 323.461C125.836 336.364 113.731 349.521 101.704 362.744C99.1344 365.561 96.5096 366.754 92.6444 366.743C66.4407 366.61 40.2259 366.721 14.0222 366.743L14 366.754Z" fill="#DFDFDF"/>
<path d="M14 98.3184H517.918V155.762C517.22 155.961 516.5 156.105 515.824 156.37C492.09 165.782 467.747 170.499 441.92 170.211C375.857 169.46 309.783 169.957 243.709 169.957C229.987 169.957 229.588 170.035 226.93 156.867C225.446 149.51 223.021 145.941 214.792 143.367C203.484 139.821 193.572 131.945 182.895 126.234C179.662 124.499 175.885 122.787 172.352 122.776C119.568 122.555 66.784 122.621 14 122.621V98.3184Z" fill="#DFDFDF"/>
<path d="M517.917 222.04C491.536 221.952 465.155 221.918 438.774 221.72C435.285 221.698 434.521 223.796 433.646 226.326C429.272 239.03 424.786 251.69 420.489 264.427C419.559 267.2 418.241 268.437 414.918 268.437C389.246 268.183 363.973 268.437 338.5 268.437C337.968 268.437 337.393 268.437 335.731 268.437C344.492 253.17 353.33 237.782 362.001 222.659C350.306 220.096 348.711 220.836 344.259 230.358C338.046 243.637 329.607 247.381 315.73 243.151C293.513 236.368 271.318 229.486 249.002 223.056C244.351 221.72 239.156 221.764 234.25 221.996C232.29 222.084 230.13 224.106 228.591 225.752C216.231 238.909 204.07 252.242 191.644 265.333C190.071 266.99 187.292 268.426 185.11 268.437C146.901 268.437 108.692 268.437 70.4824 268.437C69.7736 268.437 68.8211 268.437 66.6061 268.437C85.179 253.015 103.209 237.959 121.328 222.913C120.32 222.405 119.756 221.885 119.191 221.885C84.138 221.918 49.0742 221.996 14.0215 222.062C14.0215 213.589 14.0215 205.127 14.0215 196.654C16.0482 196.732 18.0639 196.886 20.0906 196.886C184.202 196.897 348.313 196.897 512.424 196.886C514.262 196.886 516.101 196.732 517.928 196.654L517.882 222.04H517.917Z" fill="#DFDFDF"/>
<path d="M517.918 25.4078C515.337 25.5072 512.768 25.695 510.187 25.695C391.728 25.7061 273.268 25.7061 154.82 25.7061C152.472 25.7061 150.135 25.7061 146.137 25.7061C170.17 44.8282 196.773 56.6815 222.81 72.2796H123.854V26.1258C121.163 25.9601 119.047 25.7282 116.932 25.7282C84.8253 25.7061 52.7186 25.7282 20.6118 25.695C18.4079 25.695 16.2039 25.5072 14 25.4078V0H517.918V25.4078Z" fill="#DFDFDF"/>
<path d="M271.601 240.998C264.613 249.923 258.2 258.209 251.666 266.383C250.847 267.411 249.451 268.416 248.244 268.438C237.722 268.438 227.201 268.438 215.572 268.438C216.68 266.781 216.68 266.229 217.09 265.665C226.969 254.762 236.814 243.826 246.871 233.077C247.912 231.972 250.592 231.188 251.877 231.729C258.289 234.425 264.502 237.606 271.59 241.009L271.601 240.998Z" fill="#DFDFDF"/>
<path d="M273.586 268.439C279.101 261.248 283.465 255.492 288.117 249.814C288.903 248.853 291.074 248.091 292.159 248.478C299.402 251.052 306.512 253.968 314.232 256.995C312.194 260.508 310.577 263.557 308.694 266.429C308.074 267.379 306.812 268.428 305.826 268.439C295.305 268.439 285.437 268.439 273.708 268.439H273.586Z" fill="#DFDFDF"/>
<path d="M186.166 169.415C193.309 163.505 199.456 158.423 206.4 152.679C208.693 158.412 210.742 163.527 213.101 169.415H186.166Z" fill="#DFDFDF"/>
</g>
</svg>
